<?xml version='1.0' encoding='utf-8'?>
<!DOCTYPE svg PUBLIC '-//W3C//DTD SVG 1.1//EN' 'http://www.w3.org/Graphics/SVG/1.1/DTD/svg11.dtd'>
<svg version="1.1" xmlns="http://www.w3.org/2000/svg" viewBox="0 0 512 512" xmlns:xlink="http://www.w3.org/1999/xlink" enable-background="new 0 0 512 512">
  <g>
    <g>
      <path d="m298,136c-1.3,0.4-24.4,8.1-43.3,29.5-18.9-21.4-42-29-43.3-29.5-10.6-3.4-22,2.4-25.5,13.1-3.5,10.6 2.3,22.2 12.9,25.8 1.1,0.4 27,9.5 36.5,36.6 2.9,8.4 10.8,13.7 19.3,13.7 8.3,0 17.4-7.2 19.7-13.7 9.3-27 35-36.1 36.4-36.6 10.7-3.5 16.5-14.9 13.1-25.6-3.5-10.8-15-16.7-25.8-13.3z"/>
      <path d="m409.1,223.6c32-54.3 41.5-118.6 26.5-180.9-2.7-11.1-11.1-14.4-27.7-14.4-22.7,0-43,13.8-62.5,25.4-21.6-26.7-54.2-42.7-89.4-42.7-35.2,0-67.8,16-89.4,42.8-19.5-11.6-39.1-25.4-62.5-25.4-14.7,0-25.1,3.6-27.7,14.3-15.2,62.3-5.5,126.6 26.5,180.9 30.2,51.2 77,87.8 132.7,104.2v81l-71.7-47.8c-9.4-6.2-22.1-3.7-28.3,5.7-6.3,9.4-3.7,22.1 5.7,28.3l94.3,62.8v22.8c0,11.3 9.1,20.4 20.4,20.4 11.3,0 20.4-9.1 20.4-20.4v-22.8l94.3-62.8c9.4-6.3 11.9-18.9 5.7-28.3-6.3-9.4-18.9-11.9-28.3-5.7l-71.7,47.7v-81c55.7-16.3 102.5-52.9 132.7-104.1zm-271-20.7c-23.5-38.8-32-84.5-25.9-129.7 17.1,6 33.3,14.4 48.2,25.3 4.8,3.5 10.9,4.7 16.6,3.4 5.8-1.3 10.7-5.1 13.4-10.4 12.9-24.5 38-39.7 65.5-39.7 27.6,0 52.7,15.2 65.5,39.7 2.8,5.2 7.7,9 13.4,10.4 5.8,1.3 11.8,0.1 16.6-3.4 14.9-10.9 31.1-19.3 48.2-25.3 6.1,45.2-3.3,90.3-25.9,129.7-60,104.8-172,105.1-235.6,0z"/>
    </g>
  </g>
</svg>
