<?xml version="1.0" encoding="iso-8859-1"?>
<!-- Generator: Adobe Illustrator 18.0.0, SVG Export Plug-In . SVG Version: 6.00 Build 0)  -->
<!DOCTYPE svg PUBLIC "-//W3C//DTD SVG 1.1//EN" "http://www.w3.org/Graphics/SVG/1.1/DTD/svg11.dtd">
<svg version="1.1" id="Capa_1" xmlns="http://www.w3.org/2000/svg" xmlns:xlink="http://www.w3.org/1999/xlink" x="0px" y="0px"
	 viewBox="0 0 441.002 441.002" style="enable-background:new 0 0 441.002 441.002;" xml:space="preserve">
<path d="M440.728,214.114c-0.73-2.032-2.773-3.284-4.918-3.022c-0.092,0.011-30.77,3.681-46.83-13.852
	c-7.763-8.475-10.995-20.787-9.607-36.595c0.144-1.632-0.587-3.218-1.921-4.169c-1.333-0.951-3.071-1.126-4.567-0.457
	c-0.185,0.082-18.678,8.244-36.315,8.245c-11.053,0.001-19.164-3.216-24.108-9.563c-7.776-9.981-8.468-27.928-2.057-53.343
	c0.33-1.307,0.073-2.692-0.703-3.793c-0.776-1.102-1.995-1.81-3.336-1.939c-17.711-1.706-29.454-6.784-33.958-14.684
	c-4.604-8.074-0.451-17.139-0.418-17.207c0.751-1.559,0.569-3.407-0.472-4.789c-1.041-1.382-2.767-2.065-4.473-1.775
	c-1.669,0.286-3.318,0.431-4.902,0.431c-28.464,0-37-47.512-37.082-47.989c-0.38-2.219-2.303-3.839-4.553-3.841
	c-0.001,0-0.002,0-0.004,0c-2.249,0-4.172,1.621-4.556,3.837c-0.083,0.48-8.624,47.988-37.084,47.993c-0.002,0-0.003,0-0.004,0
	c-1.58,0-3.227-0.145-4.896-0.431c-1.706-0.292-3.432,0.393-4.473,1.774c-1.042,1.382-1.224,3.23-0.473,4.789
	c0.042,0.089,4.148,9.096-0.376,17.131c-4.474,7.944-16.231,13.048-34,14.76c-1.341,0.129-2.56,0.837-3.336,1.939
	c-0.776,1.102-1.033,2.487-0.703,3.793c6.411,25.411,5.718,43.357-2.058,53.339c-4.944,6.347-13.056,9.566-24.107,9.566
	c-17.579,0.002-36.131-8.164-36.313-8.245c-1.496-0.668-3.234-0.494-4.568,0.457c-1.334,0.951-2.065,2.537-1.922,4.169
	c1.388,15.807-1.844,28.119-9.606,36.593c-16.061,17.536-46.751,13.864-46.824,13.854c-2.148-0.268-4.191,0.982-4.925,3.015
	c-0.735,2.033,0.037,4.304,1.859,5.468c0.117,0.075,11.835,7.621,21.051,18.813c11.571,14.051,13.747,26.952,6.467,38.344
	c-0.898,1.406-0.97,3.188-0.186,4.661c0.784,1.473,2.301,2.41,3.969,2.45c0.268,0.006,26.845,0.827,37.96,16.336
	c5.548,7.741,6.323,18.19,2.303,31.057c-0.581,1.858,0.065,3.881,1.615,5.06c1.55,1.179,3.672,1.259,5.307,0.202
	c21.878-14.143,41.419-21.018,59.739-21.018c12.385,0,22.821,3.101,32.028,5.837c7.911,2.351,15.383,4.572,22.952,4.572
	c7.233,0,13.815-2.054,20.199-6.354c-0.062,1.101-0.145,2.147-0.288,3.085c-2.297,15.065-5.969,29.933-11.207,44.25
	c-4.497,12.292-10.33,24.333-18.037,34.953c-5.555,7.654-15.925,15.456-10.393,26.078c6.084,11.683,19.73,7.997,25.552-1.275
	c7.39-11.768,12.793-24.604,16.65-37.937c6.366-22.01,9.101-45.655,8.268-68.744c6.191,4.021,12.581,5.945,19.58,5.945
	c7.569,0,15.042-2.221,22.953-4.572c9.207-2.736,19.643-5.837,32.027-5.837c18.32,0,37.861,6.875,59.739,21.018
	c0.766,0.495,1.639,0.741,2.509,0.741c0.988,0,1.974-0.316,2.798-0.942c1.55-1.178,2.196-3.201,1.615-5.06
	c-4.016-12.854-3.248-23.294,2.285-31.033c11.058-15.467,37.713-16.353,37.976-16.36c1.668-0.04,3.185-0.977,3.969-2.45
	c0.784-1.473,0.713-3.255-0.186-4.661c-17.712-27.723,27.069-56.868,27.521-57.157C440.69,218.413,441.459,216.146,440.728,214.114z
	 M55.581,229.145c29.351-7.789,60.021-7.757,89.739-2.234c26.782,4.978,58.906,16.934,76.106,39.25
	C169.599,239.552,111.395,239.65,55.581,229.145z M300.728,242.112c-26.958,5.457-53.338,13.667-78.795,24.048
	c-6.588-28.895-8.153-59.128-8.777-88.678c-0.67-31.765-0.061-64.547,6.071-95.814c6.814,30.054,8.174,61.43,8.85,92.136
	c0.234,30.722-0.174,62.116-6.144,92.356c37.059-41.521,109.707-51.034,160.744-37.016
	C355.524,234.404,327.867,236.495,300.728,242.112z"/>
<g>
</g>
<g>
</g>
<g>
</g>
<g>
</g>
<g>
</g>
<g>
</g>
<g>
</g>
<g>
</g>
<g>
</g>
<g>
</g>
<g>
</g>
<g>
</g>
<g>
</g>
<g>
</g>
<g>
</g>
</svg>
